<svg xmlns="http://www.w3.org/2000/svg" xmlns:xlink="http://www.w3.org/1999/xlink" width="1080" zoomAndPan="magnify" viewBox="0 0 810 809.999993" height="1080" preserveAspectRatio="xMidYMid meet" version="1.0"><defs><g/><clipPath id="ba62715263"><path d="M 0 107.664062 L 810 107.664062 L 810 702.582031 L 0 702.582031 Z M 0 107.664062 " clip-rule="nonzero"/></clipPath></defs><g clip-path="url(#ba62715263)"><path fill="#000000" d="M 809.96875 494.789062 L 797.507812 153.054688 C 796.527344 126.167969 773.628906 105.566406 747.234375 107.835938 L 42.488281 167.703125 C 17.253906 169.867188 -1.605469 192.183594 0.109375 217.847656 L 20.019531 516.558594 C 21.695312 541.753906 42.621094 561.125 67.472656 560.492188 L 161.09375 559.660156 L 321.285156 702.582031 L 307.839844 556.261719 L 764.769531 543.648438 C 790.601562 542.984375 810.925781 521.015625 809.96875 494.789062 " fill-opacity="1" fill-rule="nonzero"/></g><path fill="#ffffff" d="M 795.769531 479.378906 L 784.140625 165.171875 C 784.992188 135.507812 766.941406 118.945312 737.1875 123.597656 L 74.261719 179.679688 C 50.703125 181.671875 33.089844 202.195312 34.6875 225.785156 L 53.28125 500.4375 C 54.847656 523.601562 74.394531 541.417969 97.59375 540.828125 L 174.824219 538.886719 L 305.542969 654.890625 L 288.460938 536.027344 L 753.5625 524.308594 C 777.6875 523.695312 796.664062 503.5 795.769531 479.378906 " fill-opacity="1" fill-rule="nonzero"/><g fill="#000000" fill-opacity="1"><g transform="translate(56.537701, 419.62082)"><g><path d="M 34.921875 -1.816406 L 43.867188 -2.617188 L 47.667969 -4.1875 L 48.78125 -8.011719 L 48.765625 -14.988281 L 48.0625 -20.046875 L 48.160156 -22.871094 L 47.710938 -28.214844 L 47.832031 -30.636719 L 47.257812 -33.554688 L 46.238281 -55.105469 L 45.671875 -57.886719 L 45.378906 -69.546875 L 46.207031 -73.625 L 48.652344 -75.378906 L 53.851562 -75.960938 L 58.839844 -75.585938 L 61.625 -76.15625 L 64.042969 -76.164062 L 66.226562 -77.769531 L 67.65625 -80.808594 L 67.03125 -93.523438 L 65.402344 -96.109375 L 62.757812 -97.695312 L 54.464844 -97.203125 L 51.90625 -97.316406 L 49.125 -96.75 L 46.566406 -96.863281 L 35.765625 -95.683594 L 33.058594 -96.058594 L 30.507812 -96.042969 L 27.722656 -95.472656 L 24.765625 -95.566406 L 22.390625 -94.886719 L 14.476562 -94.816406 L 10.355469 -94.167969 L 0.960938 -94.144531 L -1.5 -92.65625 L -2.921875 -89.484375 L -2.628906 -86.816406 L -2.496094 -80.113281 L -1.984375 -75.984375 L -0.636719 -73.648438 L 1.851562 -72.453125 L 4.511719 -72.882812 L 17.230469 -73.371094 L 19.851562 -72.1875 L 21.484375 -69.597656 L 21.472656 -65.304688 L 21.960938 -61.574219 L 22.003906 -58.625 L 22.296875 -55.957031 L 22.253906 -52.195312 L 23.84375 -32.292969 L 23.734375 -29.601562 L 24.246094 -18.761719 L 24.683594 -15.96875 L 25.011719 -8.203125 L 24.894531 -5.644531 L 26.808594 -2.808594 L 30.769531 -1.703125 Z M 34.921875 -1.816406 "/></g></g></g><g fill="#000000" fill-opacity="1"><g transform="translate(131.293357, 415.16094)"><g><path d="M 9.941406 -4.351562 L 11.179688 -1.605469 L 14.328125 -0.585938 L 16.867188 -0.738281 L 20.988281 -1.386719 L 24.875 -1.484375 L 27.707031 -1.25 L 30.5 -1.683594 L 33.371094 -3.066406 L 34.28125 -5.804688 L 34.257812 -8.484375 L 33.679688 -11.40625 L 33.804688 -13.828125 L 33.375 -16.488281 L 33.492188 -19.042969 L 33.183594 -21.976562 L 33.28125 -24.800781 L 32.25 -35.34375 L 33.421875 -38.234375 L 36 -39.996094 L 38.808594 -40.164062 L 41.230469 -40.039062 L 49.121094 -40.511719 L 51.78125 -40.9375 L 54.472656 -40.832031 L 57.015625 -40.984375 L 59.5 -39.789062 L 60.996094 -37.195312 L 61.886719 -29.058594 L 61.636719 -26.496094 L 62.738281 -17.03125 L 62.441406 -12.984375 L 63.15625 -7.792969 L 64.660156 -5.066406 L 67.414062 -3.886719 L 70.074219 -4.316406 L 74.109375 -4.152344 L 83.335938 -4.703125 L 85.925781 -6.335938 L 87.242188 -8.964844 L 87.453125 -14.476562 L 86.167969 -36.011719 L 85.328125 -41.0625 L 85.304688 -43.742188 L 84.867188 -46.535156 L 84.707031 -49.210938 L 84.941406 -52.042969 L 84.503906 -57.117188 L 84.597656 -60.078125 L 83.414062 -73.160156 L 83.421875 -84.300781 L 82.734375 -86.808594 L 82.316406 -89.335938 L 82.691406 -92.039062 L 82.261719 -94.699219 L 80.765625 -97.292969 L 76.539062 -98.386719 L 69.710938 -98.113281 L 65.457031 -97.457031 L 62.78125 -97.296875 L 58.839844 -95.851562 L 58 -91.910156 L 59.140625 -77.347656 L 58.738281 -75.042969 L 59.203125 -67.285156 L 57.890625 -64.523438 L 55.695312 -63.050781 L 50.347656 -62.730469 L 47.925781 -62.855469 L 34.960938 -61.945312 L 32.078125 -62.984375 L 30.855469 -65.460938 L 30.378906 -73.484375 L 30.503906 -75.910156 L 29.3125 -89.125 L 29.308594 -91.40625 L 27.535156 -94.121094 L 23.3125 -95.210938 L 15.4375 -94.472656 L 12.746094 -94.578125 L 10.21875 -94.160156 L 6.144531 -92.707031 L 4.808594 -90.347656 L 4.585938 -87.382812 L 4.738281 -84.839844 L 5.179688 -81.914062 L 4.929688 -79.347656 L 6.078125 -71.363281 L 5.851562 -68.398438 L 6.253906 -66.140625 L 5.878906 -63.433594 L 6.902344 -55.308594 L 6.800781 -52.480469 L 7.265625 -44.726562 L 7.816406 -42.207031 L 7.796875 -38.046875 L 8.246094 -34.984375 L 8.222656 -28.675781 L 8.664062 -25.75 L 8.421875 -23.050781 L 8.96875 -20.667969 L 8.859375 -17.976562 Z M 9.941406 -4.351562 "/></g></g></g><g fill="#000000" fill-opacity="1"><g transform="translate(229.184484, 409.320812)"><g><path d="M 50.117188 -1.378906 L 57.597656 -1.960938 L 65.558594 -3.507812 L 75.390625 -7.449219 L 79.660156 -10.121094 L 81.570312 -11.847656 L 84.039062 -13.199219 L 87.589844 -16.632812 L 89.1875 -19.144531 L 90.949219 -21.128906 L 96.296875 -30.441406 L 98 -35.644531 L 98.765625 -40.789062 L 98.757812 -43.203125 L 99.265625 -45.917969 L 99.234375 -48.734375 L 99.535156 -52.644531 L 98.734375 -59.308594 L 97.472656 -64.738281 L 93.53125 -74.566406 L 90.695312 -79.363281 L 87.511719 -83.203125 L 83.519531 -87.125 L 79.441406 -90.238281 L 76.238281 -92.191406 L 72.121094 -93.691406 L 70.027344 -95.042969 L 59.539062 -97.640625 L 51.703125 -98.515625 L 48.082031 -98.433594 L 34.027344 -95.582031 L 24.21875 -91.238281 L 22.300781 -89.644531 L 19.964844 -88.296875 L 15.617188 -84.683594 L 9.519531 -76.667969 L 5.796875 -69.332031 L 4.09375 -64.132812 L 2.433594 -53.699219 L 2.679688 -42.839844 L 3.246094 -40.054688 L 4.058594 -37.6875 L 4.480469 -35.164062 L 5.984375 -30.152344 L 12.863281 -18.351562 L 14.566406 -16.839844 L 16.429688 -14.804688 L 18.546875 -13.050781 L 20.125 -11.402344 L 24.746094 -8.1875 L 35.496094 -3.460938 L 39.453125 -2.355469 L 42.414062 -2.261719 L 47.289062 -1.480469 Z M 56.191406 -25.5 L 48.835938 -25.058594 L 45.871094 -25.285156 L 40.9375 -27.003906 L 38.722656 -28.082031 L 34.9375 -30.808594 L 33.085938 -32.574219 L 31.0625 -35.003906 L 30.265625 -37.105469 L 28.917969 -39.441406 L 27.554688 -44.324219 L 27.066406 -52.484375 L 27.59375 -54.929688 L 27.84375 -57.496094 L 28.769531 -59.96875 L 29.429688 -62.421875 L 32.382812 -66.894531 L 38.796875 -71.839844 L 40.496094 -72.613281 L 45.632812 -74.261719 L 49.363281 -74.75 L 55.828125 -74.332031 L 58.269531 -73.941406 L 60.738281 -73.015625 L 65.0625 -70.320312 L 70.605469 -65.148438 L 72.511719 -60.160156 L 73.867188 -57.691406 L 74.414062 -55.308594 L 74.632812 -47.132812 L 73.855469 -42.121094 L 73.066406 -39.660156 L 71.738281 -37.164062 L 71.054688 -35.109375 L 69.308594 -32.859375 L 63.152344 -28.0625 L 60.785156 -27.25 L 58.835938 -26.191406 Z M 56.191406 -25.5 "/></g></g></g><g fill="#000000" fill-opacity="1"><g transform="translate(336.436781, 402.922201)"><g><path d="M 39.519531 -1.285156 L 45.96875 -1.132812 L 52.640625 -1.796875 L 57.917969 -3.320312 L 60.664062 -4.558594 L 63.296875 -5.386719 L 65.359375 -6.851562 L 67.703125 -8.066406 L 69.753906 -9.664062 L 75.453125 -15.375 L 76.78125 -17.867188 L 78.398438 -19.976562 L 79.042969 -22.699219 L 80.246094 -25.054688 L 81.027344 -27.652344 L 81.160156 -41.214844 L 80.113281 -52.023438 L 80.480469 -54.863281 L 80.335938 -57.273438 L 79.640625 -59.914062 L 79.355469 -62.449219 L 79.457031 -65.273438 L 79.097656 -69.007812 L 79.117188 -73.171875 L 78.808594 -76.105469 L 79.058594 -78.671875 L 78.496094 -81.320312 L 77.984375 -92.164062 L 77.449219 -94.414062 L 76.203125 -97.292969 L 71.851562 -98.238281 L 59.273438 -97.625 L 56.402344 -96.242188 L 55.238281 -93.222656 L 56.15625 -80.121094 L 56.046875 -77.433594 L 56.492188 -72.222656 L 56.390625 -69.398438 L 56.960938 -66.613281 L 57.191406 -56.027344 L 57.867188 -53.648438 L 57.777344 -50.691406 L 58.199219 -45.886719 L 58.089844 -43.195312 L 58.628906 -36.382812 L 58.351562 -32.070312 L 57.296875 -29.457031 L 56.207031 -27.511719 L 54.1875 -25.378906 L 48.941406 -23.320312 L 45.34375 -22.839844 L 40.914062 -22.84375 L 38.46875 -23.367188 L 35.4375 -24.664062 L 33.328125 -26.28125 L 31.613281 -28.058594 L 30.640625 -30.820312 L 28.96875 -54.34375 L 28.410156 -56.992188 L 27.78125 -65.277344 L 27.90625 -67.699219 L 27.265625 -78.398438 L 26.632812 -82.253906 L 26.484375 -84.796875 L 26.910156 -88.847656 L 26.746094 -91.65625 L 25.121094 -94.109375 L 21.839844 -95.121094 L 7.789062 -94.417969 L 5.203125 -92.785156 L 4.15625 -90.039062 L 4.636719 -82.015625 L 4.101562 -79.703125 L 4.972656 -74.117188 L 4.875 -69.011719 L 6.023438 -61.027344 L 5.640625 -58.453125 L 6.214844 -55.535156 L 6.101562 -52.976562 L 6.394531 -50.3125 L 6.277344 -47.753906 L 7 -42.429688 L 7.4375 -32.789062 L 8.070312 -28.9375 L 8.238281 -26.128906 L 9.203125 -23.5 L 9.753906 -20.984375 L 10.707031 -18.488281 L 13.652344 -14.101562 L 17.527344 -9.902344 L 19.371094 -8.269531 L 24.078125 -5.867188 L 26.179688 -4.378906 L 28.785156 -3.460938 L 31.917969 -2.710938 L 33.988281 -1.757812 L 36.9375 -1.800781 Z M 39.519531 -1.285156 "/></g></g></g><g fill="#000000" fill-opacity="1"><g transform="translate(428.711214, 397.417161)"><g><path d="M 49.046875 -1.316406 L 52.53125 -1.390625 L 59.710938 -2.488281 L 62.355469 -3.183594 L 64.890625 -3.46875 L 67.121094 -4.273438 L 76.765625 -9.144531 L 78.539062 -10.859375 L 82.785156 -13.929688 L 86.417969 -18.308594 L 90.324219 -24.851562 L 93.03125 -31.1875 L 94.425781 -37.039062 L 94.410156 -39.589844 L 95.050781 -42.3125 L 94.980469 -52.507812 L 94.421875 -55.160156 L 92.65625 -57.738281 L 88.707031 -58.710938 L 55.136719 -56.707031 L 51.078125 -54.988281 L 50.027344 -52.375 L 50.355469 -42.332031 L 51.042969 -39.820312 L 51.980469 -37.59375 L 54.59375 -36.542969 L 57.136719 -36.695312 L 59.558594 -36.570312 L 67.558594 -37.449219 L 69.519531 -36.089844 L 70.191406 -33.851562 L 69.246094 -31.644531 L 65.59375 -27.667969 L 63.515625 -26.472656 L 58.53125 -24.5625 L 55.878906 -24.003906 L 52.007812 -23.636719 L 47.847656 -23.660156 L 45.40625 -24.050781 L 42.945312 -24.84375 L 37.976562 -27.097656 L 33.773438 -30.066406 L 32.167969 -32.253906 L 30.960938 -34.460938 L 29.347656 -36.78125 L 28.257812 -39.265625 L 26.660156 -52.59375 L 27.84375 -57.496094 L 28.21875 -60.203125 L 29.929688 -65.269531 L 33.183594 -69.222656 L 37.414062 -72.5625 L 39.621094 -73.769531 L 44.734375 -75.816406 L 48.472656 -76.175781 L 55.472656 -75.789062 L 58.054688 -75.269531 L 64.988281 -71.523438 L 66.453125 -69.464844 L 69.523438 -67.5 L 72.546875 -66.335938 L 85.652344 -67.117188 L 88.179688 -67.539062 L 90.40625 -68.476562 L 91.164062 -71.472656 L 86.292969 -81.117188 L 84.3125 -82.875 L 80.710938 -86.957031 L 76.601562 -90.605469 L 67.171875 -95.679688 L 64.183594 -96.304688 L 61.988281 -97.113281 L 59.289062 -97.355469 L 56.296875 -97.984375 L 43.015625 -97.859375 L 34.9375 -96.039062 L 24.988281 -91.820312 L 22.652344 -90.472656 L 16.238281 -85.527344 L 12.449219 -81.542969 L 10.847656 -79.164062 L 9.636719 -76.945312 L 7.742188 -74.953125 L 6.421875 -72.324219 L 2.882812 -61.914062 L 2.894531 -59.496094 L 1.773438 -53.523438 L 2.4375 -46.851562 L 2.394531 -43.09375 L 2.695312 -40.292969 L 5.585938 -30.128906 L 8.832031 -22.941406 L 10.453125 -20.488281 L 15.628906 -14.757812 L 19.605469 -11.101562 L 28.507812 -5.863281 L 30.988281 -4.800781 L 38.636719 -2.574219 L 46.222656 -1.414062 Z M 49.046875 -1.316406 "/></g></g></g><g fill="#000000" fill-opacity="1"><g transform="translate(531.149199, 391.30577)"><g><path d="M 9.941406 -4.351562 L 11.179688 -1.605469 L 14.328125 -0.585938 L 16.867188 -0.738281 L 20.988281 -1.386719 L 24.875 -1.484375 L 27.707031 -1.25 L 30.5 -1.683594 L 33.371094 -3.066406 L 34.28125 -5.804688 L 34.257812 -8.484375 L 33.679688 -11.40625 L 33.804688 -13.828125 L 33.375 -16.488281 L 33.492188 -19.042969 L 33.183594 -21.976562 L 33.28125 -24.800781 L 32.25 -35.34375 L 33.421875 -38.234375 L 36 -39.996094 L 38.808594 -40.164062 L 41.230469 -40.039062 L 49.121094 -40.511719 L 51.78125 -40.9375 L 54.472656 -40.832031 L 57.015625 -40.984375 L 59.5 -39.789062 L 60.996094 -37.195312 L 61.886719 -29.058594 L 61.636719 -26.496094 L 62.738281 -17.03125 L 62.441406 -12.984375 L 63.15625 -7.792969 L 64.660156 -5.066406 L 67.414062 -3.886719 L 70.074219 -4.316406 L 74.109375 -4.152344 L 83.335938 -4.703125 L 85.925781 -6.335938 L 87.242188 -8.964844 L 87.453125 -14.476562 L 86.167969 -36.011719 L 85.328125 -41.0625 L 85.304688 -43.742188 L 84.867188 -46.535156 L 84.707031 -49.210938 L 84.941406 -52.042969 L 84.503906 -57.117188 L 84.597656 -60.078125 L 83.414062 -73.160156 L 83.421875 -84.300781 L 82.734375 -86.808594 L 82.316406 -89.335938 L 82.691406 -92.039062 L 82.261719 -94.699219 L 80.765625 -97.292969 L 76.539062 -98.386719 L 69.710938 -98.113281 L 65.457031 -97.457031 L 62.78125 -97.296875 L 58.839844 -95.851562 L 58 -91.910156 L 59.140625 -77.347656 L 58.738281 -75.042969 L 59.203125 -67.285156 L 57.890625 -64.523438 L 55.695312 -63.050781 L 50.347656 -62.730469 L 47.925781 -62.855469 L 34.960938 -61.945312 L 32.078125 -62.984375 L 30.855469 -65.460938 L 30.378906 -73.484375 L 30.503906 -75.910156 L 29.3125 -89.125 L 29.308594 -91.40625 L 27.535156 -94.121094 L 23.3125 -95.210938 L 15.4375 -94.472656 L 12.746094 -94.578125 L 10.21875 -94.160156 L 6.144531 -92.707031 L 4.808594 -90.347656 L 4.585938 -87.382812 L 4.738281 -84.839844 L 5.179688 -81.914062 L 4.929688 -79.347656 L 6.078125 -71.363281 L 5.851562 -68.398438 L 6.253906 -66.140625 L 5.878906 -63.433594 L 6.902344 -55.308594 L 6.800781 -52.480469 L 7.265625 -44.726562 L 7.816406 -42.207031 L 7.796875 -38.046875 L 8.246094 -34.984375 L 8.222656 -28.675781 L 8.664062 -25.75 L 8.421875 -23.050781 L 8.96875 -20.667969 L 8.859375 -17.976562 Z M 9.941406 -4.351562 "/></g></g></g><g fill="#000000" fill-opacity="1"><g transform="translate(629.040338, 385.465641)"><g><path d="M 25.429688 -5.679688 L 26.667969 -2.933594 L 29.558594 -1.761719 L 32.082031 -2.183594 L 34.773438 -2.074219 L 37.296875 -2.492188 L 45.589844 -2.988281 L 48.199219 -4.21875 L 49.113281 -6.957031 L 48.824219 -9.488281 L 48.910156 -12.582031 L 48.457031 -17.921875 L 47.921875 -20.171875 L 48.152344 -23.003906 L 47.933594 -31.179688 L 47.523438 -33.570312 L 47.589844 -39.210938 L 45.46875 -65.796875 L 45.707031 -68.492188 L 45.265625 -71.421875 L 46.191406 -73.890625 L 49.0625 -75.269531 L 51.328125 -75.539062 L 54.011719 -75.566406 L 56.402344 -75.976562 L 63.765625 -76.28125 L 66.769531 -77.667969 L 67.949219 -80.425781 L 67.511719 -83.214844 L 67.125 -94.199219 L 65.628906 -96.792969 L 62.875 -97.972656 L 59.679688 -97.511719 L 57.523438 -97.652344 L 54.984375 -97.5 L 52.066406 -96.925781 L 49.390625 -96.765625 L 46.699219 -96.875 L 44.023438 -96.714844 L 40.972656 -96.128906 L 1.101562 -94.019531 L -1.761719 -92.503906 L -2.9375 -89.75 L -2.273438 -76.367188 L -0.628906 -73.515625 L 2.125 -72.335938 L 5.582031 -72.945312 L 17.492188 -73.519531 L 19.988281 -72.195312 L 21.476562 -69.734375 L 22.753906 -55.042969 L 22.601562 -50.875 L 23.019531 -48.351562 L 22.910156 -45.660156 L 23.230469 -40.308594 L 23.863281 -36.453125 L 23.566406 -32.410156 L 23.859375 -29.742188 L 23.894531 -26.925781 L 24.78125 -18.792969 L 24.675781 -16.101562 Z M 25.429688 -5.679688 "/></g></g></g><g fill="#000000" fill-opacity="1"><g transform="translate(703.795993, 381.005761)"><g><path d="M 38.847656 -1.242188 L 42.75 -1.074219 L 47.023438 -1.464844 L 59.976562 -4.785156 L 66.710938 -8.945312 L 70.8125 -12.144531 L 74.304688 -16.648438 L 76.722656 -21.085938 L 77.648438 -23.558594 L 78.292969 -26.28125 L 78.550781 -28.710938 L 78.1875 -37.011719 L 77.628906 -39.664062 L 76.808594 -42.164062 L 73.835938 -46.953125 L 70.378906 -50.90625 L 67.996094 -52.644531 L 60.714844 -55.429688 L 49.589844 -57.449219 L 35.976562 -58.382812 L 30.238281 -60.054688 L 28.171875 -61.003906 L 25.902344 -63.015625 L 25.554688 -66.621094 L 25.746094 -70.121094 L 27.105469 -72.082031 L 29.277344 -73.957031 L 31.101562 -74.871094 L 33.476562 -75.546875 L 42.019531 -76.328125 L 45.027344 -75.433594 L 47.128906 -73.949219 L 51.820312 -69.53125 L 56.046875 -68.441406 L 64.890625 -68.699219 L 67.28125 -69.109375 L 69.839844 -68.992188 L 72.285156 -70.75 L 73.335938 -73.363281 L 71.953125 -78.515625 L 69.527344 -83.203125 L 67.660156 -85.238281 L 66.195312 -87.296875 L 64.335938 -89.199219 L 55.425781 -94.574219 L 47.917969 -96.675781 L 45.078125 -97.042969 L 42.65625 -97.167969 L 39.671875 -97.660156 L 32.191406 -97.082031 L 21.753906 -94.3125 L 19.402344 -93.230469 L 17.34375 -91.765625 L 15.25 -90.835938 L 12.671875 -89.070312 L 10.902344 -87.222656 L 8.589844 -85.472656 L 7.253906 -83.109375 L 5.621094 -81.269531 L 4.828125 -78.804688 L 3.617188 -76.585938 L 2.207031 -68.71875 L 2.878906 -59.765625 L 4.035156 -56.074219 L 6.054688 -51.5 L 9.660156 -47.285156 L 13.613281 -44.03125 L 18.460938 -41.5 L 26.238281 -39.414062 L 31.117188 -38.632812 L 42.128906 -38.484375 L 44.5625 -38.226562 L 47.246094 -38.253906 L 52.179688 -36.535156 L 54.148438 -35.039062 L 55.023438 -31.601562 L 54.429688 -28.078125 L 52.398438 -26.078125 L 50.332031 -24.746094 L 45.472656 -22.980469 L 41.734375 -22.621094 L 37.707031 -22.652344 L 34.582031 -23.269531 L 32.519531 -24.085938 L 30.023438 -25.414062 L 27.90625 -27.167969 L 25.742188 -29.722656 L 23.003906 -30.632812 L 12.824219 -30.292969 L 10.164062 -29.867188 L 7.480469 -29.839844 L 4.878906 -28.476562 L 4.109375 -25.613281 L 4.550781 -22.6875 L 5.230469 -20.3125 L 7.691406 -15.089844 L 11.28125 -11.140625 L 15.390625 -7.496094 L 17.753906 -6.160156 L 27.644531 -2.320312 L 30.609375 -2.09375 L 33.207031 -1.308594 Z M 38.847656 -1.242188 "/></g></g></g></svg>