<svg xmlns="http://www.w3.org/2000/svg" xmlns:xlink="http://www.w3.org/1999/xlink" width="1080" zoomAndPan="magnify" viewBox="0 0 810 809.999993" height="1080" preserveAspectRatio="xMidYMid meet" version="1.0"><defs><clipPath id="b3bc13f832"><path d="M 19 92 L 794 92 L 794 729.273438 L 19 729.273438 Z M 19 92 " clip-rule="nonzero"/></clipPath></defs><g clip-path="url(#b3bc13f832)"><path fill="#ffffff" d="M 198.398438 576.121094 C 199.992188 575.941406 206.957031 575.3125 212.632812 575.425781 C 227.917969 575.738281 248.167969 577.492188 257.199219 576.976562 C 315.054688 573.988281 372.777344 572.167969 430.53125 571.449219 C 488.289062 570.753906 546.074219 571.136719 604.046875 571.921875 C 632.667969 572.324219 669.929688 576.167969 702.464844 570.035156 C 726.539062 565.496094 748.050781 555.566406 762.640625 536.023438 C 782.445312 509.519531 790.800781 476.136719 793.167969 440.757812 C 796.480469 391.25 788.035156 337.789062 785.507812 295.152344 C 783.648438 264.960938 781.613281 227.964844 773.980469 193.6875 C 768.621094 169.628906 760.484375 146.894531 748.039062 128.523438 C 734.992188 109.25 715.042969 99.5 692.457031 95.253906 C 662.457031 89.617188 627.726562 93.882812 601.089844 95.433594 C 560.246094 97.8125 519.5 101.476562 478.804688 105.722656 C 384.207031 115.539062 289.867188 128.5 195.105469 135.867188 C 165.929688 138.089844 126.144531 139.078125 93.601562 150.648438 C 69.785156 159.117188 49.777344 173.15625 39.40625 196.628906 C 34.855469 206.894531 31.640625 217.519531 29.304688 228.324219 C 25.882812 244.183594 24.378906 260.492188 23.328125 276.777344 C 22.660156 286.976562 22.167969 297.195312 21.789062 307.417969 C 21.40625 317.617188 21.132812 327.8125 20.898438 338.011719 C 20 376.582031 13.753906 475.308594 42.859375 529.734375 C 55.933594 554.199219 75.640625 570.371094 104.898438 570.867188 C 95.019531 597.957031 72.839844 650.476562 60.214844 685.179688 C 53.671875 703.171875 49.976562 717.011719 50.480469 721.570312 C 50.792969 724.402344 52.054688 726.039062 53.167969 727.074219 C 54.648438 728.445312 56.390625 729.230469 58.425781 729.34375 C 59.878906 729.433594 61.914062 729.1875 64.03125 727.75 C 65.175781 726.984375 68.378906 723.613281 68.378906 723.613281 C 68.378906 723.613281 68.238281 723.726562 68.175781 723.773438 L 86.9375 708.746094 C 94.515625 702.207031 101.835938 695.402344 108.9375 688.347656 C 116.011719 681.339844 122.871094 674.105469 129.539062 666.691406 C 146.863281 647.441406 161.203125 622.417969 177.363281 600.515625 C 183.9375 591.621094 190.816406 583.242188 198.398438 576.121094 Z M 198.398438 576.121094 " fill-opacity="1" fill-rule="evenodd"/></g></svg>